<svg width="226" height="226" viewBox="0 0 226 226" fill="none" xmlns="http://www.w3.org/2000/svg">
<path d="M226 113C226 175.408 175.408 226 113 226C50.5918 226 0 175.408 0 113C0 50.5918 50.5918 0 113 0C175.408 0 226 50.5918 226 113Z" fill="#4E1AC3" />
<g filter="url(#filter0_d_136_11)">
<path d="M57.1339 166H39.7781C35.6758 166 31.889 164.429 29.049 161.757C26.0511 158.929 24 154.843 24 150.286V71.7143C24 67.4714 25.7356 63.7 28.4179 60.8714C31.2579 57.8857 35.3602 56 39.7781 56H57.1339C61.5518 56 65.6541 57.8857 68.4941 60.8714C71.1764 63.7 72.912 67.4714 72.912 71.7143V87.4286H57.1339V74.0714C57.1339 72.0286 55.2406 70.1429 53.1894 70.1429H43.7226C41.6714 70.1429 39.7781 72.0286 39.7781 74.0714V147.929C39.7781 149.971 41.6714 151.857 43.7226 151.857H53.1894C55.2406 151.857 57.1339 149.971 57.1339 147.929V134.571H72.912V150.286C72.912 154.686 71.0186 158.771 68.0208 161.6C65.1807 164.271 61.394 166 57.1339 166Z" fill="#E0E0E0"/>
<path d="M137.051 166H121.273V116.5H103.917V166H88.1391V56H103.917V102.357H121.273V56H137.051V166Z" fill="#E0E0E0"/>
<path d="M198 166H158.555V56H198V70.1429H174.333V102.357H193.582V116.5H174.333V151.857H198V166Z" fill="#E0E0E0"/>
<path d="M28.3627 162.484L28.3638 162.486C31.3856 165.328 35.416 167 39.7781 167H57.1339C61.6742 167 65.6999 165.156 68.706 162.328L68.7071 162.327C71.8969 159.318 73.912 154.972 73.912 150.286V134.571V133.571H72.912H57.1339H56.1339V134.571V147.929C56.1339 148.642 55.7988 149.379 55.2252 149.95C54.6517 150.522 53.9095 150.857 53.1894 150.857H43.7226C43.0025 150.857 42.2603 150.522 41.6868 149.95C41.1132 149.379 40.7781 148.642 40.7781 147.929V74.0714C40.7781 73.3582 41.1132 72.6209 41.6868 72.0496C42.2603 71.4785 43.0025 71.1429 43.7226 71.1429H53.1894C53.9095 71.1429 54.6517 71.4785 55.2252 72.0496C55.7988 72.6209 56.1339 73.3582 56.1339 74.0714V87.4286V88.4286H57.1339H72.912H73.912V87.4286V71.7143C73.912 67.1886 72.0589 63.1773 69.2198 60.1833L69.2187 60.1822C66.1967 57.0053 61.8355 55 57.1339 55H39.7781C35.0765 55 30.7153 57.0053 27.6933 60.1822L27.6922 60.1833C24.8531 63.1773 23 67.1886 23 71.7143V150.286C23 155.148 25.1873 159.488 28.3627 162.484ZM137.051 167H138.051V166V56V55H137.051H121.273H120.273V56V101.357H104.917V56V55H103.917H88.1391H87.1391V56V166V167H88.1391H103.917H104.917V166V117.5H120.273V166V167H121.273H137.051ZM198 167H199V166V151.857V150.857H198H175.333V117.5H193.582H194.582V116.5V102.357V101.357H193.582H175.333V71.1429H198H199V70.1429V56V55H198H158.555H157.555V56V166V167H158.555H198Z" stroke="black" stroke-width="2"/>
</g>
<defs>
<filter id="filter0_d_136_11" x="22" y="54" width="182" height="118" filterUnits="userSpaceOnUse" color-interpolation-filters="sRGB">
<feFlood flood-opacity="0" result="BackgroundImageFix"/>
<feColorMatrix in="SourceAlpha" type="matrix" values="0 0 0 0 0 0 0 0 0 0 0 0 0 0 0 0 0 0 127 0" result="hardAlpha"/>
<feOffset dx="4" dy="4"/>
<feComposite in2="hardAlpha" operator="out"/>
<feColorMatrix type="matrix" values="0 0 0 0 0 0 0 0 0 0 0 0 0 0 0 0 0 0 1 0"/>
<feBlend mode="normal" in2="BackgroundImageFix" result="effect1_dropShadow_136_11"/>
<feBlend mode="normal" in="SourceGraphic" in2="effect1_dropShadow_136_11" result="shape"/>
</filter>
</defs>
</svg>
